<svg xmlns="http://www.w3.org/2000/svg" width="1200" height="470" viewBox="0 0 1200 470" role="img" aria-labelledby="title desc">
  <title id="title">Nebius Serverless job progress</title>
  <desc id="desc">The completed 37 minute 24 second job spent 8 minutes 56 seconds on setup and base evaluation, 15 minutes 55 seconds training, 2 minutes 21 seconds on development evaluation, 5 minutes 21 seconds on generated validation, and 4 minutes 51 seconds merging and producing GGUF files.</desc>
  <rect width="1200" height="470" fill="#ffffff"/>
  <style>
    text { font-family: Inter, ui-sans-serif, system-ui, -apple-system, BlinkMacSystemFont, "Segoe UI", sans-serif; fill: #111827; }
    .muted { fill: #64748b; }
  </style>
  <text x="70" y="48" font-size="26" font-weight="600">Serverless job progress</text>
  <text x="70" y="72" font-size="14" class="muted">Job aijob-e00kxw7qp6kg6z18w2 · COMPLETED · total runtime 37m 24s</text>

  <rect x="100" y="150" width="246" height="86" fill="#dbeafe"/>
  <rect x="346" y="150" width="438" height="86" fill="#2563eb"/>
  <rect x="784" y="150" width="65" height="86" fill="#bfdbfe"/>
  <rect x="849" y="150" width="147" height="86" fill="#60a5fa"/>
  <rect x="996" y="150" width="134" height="86" fill="#1d4ed8"/>

  <text x="223" y="184" text-anchor="middle" font-size="14" font-weight="600">Setup + base eval</text>
  <text x="223" y="207" text-anchor="middle" font-size="14">8m 56s</text>
  <text x="565" y="184" text-anchor="middle" font-size="14" font-weight="600" fill="#ffffff">QLoRA training</text>
  <text x="565" y="207" text-anchor="middle" font-size="14" fill="#ffffff">15m 55s</text>
  <text x="816" y="267" text-anchor="middle" font-size="13" font-weight="600">Dev eval</text>
  <text x="816" y="286" text-anchor="middle" font-size="13">2m 21s</text>
  <line x1="816" y1="236" x2="816" y2="250" stroke="#94a3b8"/>
  <text x="922" y="184" text-anchor="middle" font-size="14" font-weight="600">Validation</text>
  <text x="922" y="207" text-anchor="middle" font-size="14">5m 21s</text>
  <text x="1063" y="184" text-anchor="middle" font-size="14" font-weight="600" fill="#ffffff">Merge + GGUF</text>
  <text x="1063" y="207" text-anchor="middle" font-size="14" fill="#ffffff">4m 51s</text>

  <line x1="100" y1="320" x2="1130" y2="320" stroke="#94a3b8" stroke-width="1.25"/>
  <line x1="100" y1="314" x2="100" y2="326" stroke="#94a3b8"/>
  <line x1="375" y1="314" x2="375" y2="326" stroke="#94a3b8"/>
  <line x1="651" y1="314" x2="651" y2="326" stroke="#94a3b8"/>
  <line x1="926" y1="314" x2="926" y2="326" stroke="#94a3b8"/>
  <line x1="1130" y1="314" x2="1130" y2="326" stroke="#94a3b8"/>
  <text x="100" y="348" text-anchor="middle" font-size="13" class="muted">0m</text>
  <text x="375" y="348" text-anchor="middle" font-size="13" class="muted">10m</text>
  <text x="651" y="348" text-anchor="middle" font-size="13" class="muted">20m</text>
  <text x="926" y="348" text-anchor="middle" font-size="13" class="muted">30m</text>
  <text x="1130" y="348" text-anchor="middle" font-size="13" class="muted">37m 24s</text>

  <circle cx="100" cy="396" r="5" fill="#2563eb"/>
  <line x1="105" y1="396" x2="1125" y2="396" stroke="#cbd5e1" stroke-width="2"/>
  <circle cx="1130" cy="396" r="7" fill="#2563eb"/>
  <text x="100" y="430" font-size="13" class="muted">06:17:44Z · started</text>
  <text x="1130" y="430" text-anchor="end" font-size="13" class="muted">06:55:08Z · completed</text>
</svg>
