<svg xmlns="http://www.w3.org/2000/svg" width="1200" height="620" viewBox="0 0 1200 620" role="img" aria-labelledby="title desc">
  <title id="title">Nebius Serverless training loss</title>
  <desc id="desc">Training loss over 200 QLoRA steps. Raw five-step observations fall from 1.93 to 0.58, with an overall mean loss of 0.6487.</desc>
  <rect width="1200" height="620" fill="#ffffff"/>
  <style>
    text { font-family: Inter, ui-sans-serif, system-ui, -apple-system, BlinkMacSystemFont, "Segoe UI", sans-serif; fill: #111827; }
    .muted { fill: #64748b; }
    .grid { stroke: #e5e7eb; stroke-width: 1; }
    .axis { stroke: #94a3b8; stroke-width: 1.25; }
  </style>
  <text x="70" y="48" font-size="26" font-weight="600">Training loss</text>
  <text x="70" y="72" font-size="14" class="muted">Nebius Serverless AI Job · 200 QLoRA steps · observations every 5 steps</text>

  <line x1="100" y1="80" x2="1140" y2="80" class="grid"/>
  <line x1="100" y1="185" x2="1140" y2="185" class="grid"/>
  <line x1="100" y1="290" x2="1140" y2="290" class="grid"/>
  <line x1="100" y1="395" x2="1140" y2="395" class="grid"/>
  <line x1="100" y1="500" x2="1140" y2="500" class="axis"/>
  <line x1="100" y1="80" x2="100" y2="500" class="axis"/>

  <text x="84" y="85" text-anchor="end" font-size="13" class="muted">2.0</text>
  <text x="84" y="190" text-anchor="end" font-size="13" class="muted">1.5</text>
  <text x="84" y="295" text-anchor="end" font-size="13" class="muted">1.0</text>
  <text x="84" y="400" text-anchor="end" font-size="13" class="muted">0.5</text>
  <text x="84" y="505" text-anchor="end" font-size="13" class="muted">0.0</text>

  <text x="100" y="528" text-anchor="middle" font-size="13" class="muted">0</text>
  <text x="360" y="528" text-anchor="middle" font-size="13" class="muted">50</text>
  <text x="620" y="528" text-anchor="middle" font-size="13" class="muted">100</text>
  <text x="880" y="528" text-anchor="middle" font-size="13" class="muted">150</text>
  <text x="1140" y="528" text-anchor="middle" font-size="13" class="muted">200</text>
  <text x="620" y="558" text-anchor="middle" font-size="14" class="muted">training step</text>
  <text x="30" y="290" text-anchor="middle" font-size="14" class="muted" transform="rotate(-90 30 290)">loss</text>

  <polyline fill="none" stroke="#93c5fd" stroke-width="2" stroke-linejoin="round" stroke-linecap="round" points="126,94.7 152,152.9 178,226.6 204,276.4 230,322.3 256,310.4 282,319.9 308,351.4 334,350.6 360,369.5 386,366.4 412,384.4 438,373.2 464,369.2 490,398.9 516,403.1 542,371.0 568,375.9 594,394.1 620,393.7 646,388.7 672,401.8 698,404.9 724,393.2 750,372.4 776,387.1 802,400.7 828,398.4 854,381.3 880,401.0 906,400.9 932,404.2 958,401.4 984,396.9 1010,399.0 1036,400.8 1062,414.7 1088,410.7 1114,410.7 1140,377.4"/>
  <polyline fill="none" stroke="#2563eb" stroke-width="4" stroke-linejoin="round" stroke-linecap="round" points="126,158.1 152,187.6 178,214.6 204,257.7 230,291.1 256,316.1 282,330.9 308,340.4 334,351.6 360,364.5 386,368.8 412,372.5 438,378.4 464,385.8 490,383.1 516,383.6 542,388.6 568,387.6 594,384.7 620,390.9 646,396.6 672,396.5 698,392.2 724,391.9 750,391.7 776,390.4 802,388.0 828,393.7 854,396.5 880,397.2 906,397.8 932,400.9 958,400.5 984,400.5 1010,402.6 1036,404.4 1062,407.2 1088,402.9 1114,403.4 1140,399.6"/>
  <circle cx="126" cy="94.7" r="4" fill="#2563eb"/>
  <circle cx="1140" cy="377.4" r="4" fill="#2563eb"/>
  <text x="136" y="105" font-size="13" font-weight="600">1.93</text>
  <text x="1130" y="365" text-anchor="end" font-size="13" font-weight="600">0.58</text>

  <line x1="796" y1="48" x2="832" y2="48" stroke="#93c5fd" stroke-width="2"/>
  <text x="842" y="53" font-size="13" class="muted">raw loss</text>
  <line x1="936" y1="48" x2="972" y2="48" stroke="#2563eb" stroke-width="4"/>
  <text x="982" y="53" font-size="13" class="muted">5-point trend</text>
  <text x="1140" y="590" text-anchor="end" font-size="13" class="muted">mean training loss 0.6487 · runtime 15m 42s</text>
</svg>
